<?xml version="1.0" standalone="no"?>
<!DOCTYPE svg PUBLIC "-//W3C//DTD SVG 20010904//EN"
 "http://www.w3.org/TR/2001/REC-SVG-20010904/DTD/svg10.dtd">
<svg version="1.0" xmlns="http://www.w3.org/2000/svg"
 width="512.000000pt" height="512.000000pt" viewBox="0 0 512.000000 512.000000"
 preserveAspectRatio="xMidYMid meet">
<metadata>
Created by potrace 1.14, written by Peter Selinger 2001-2017
</metadata>
<g transform="translate(0.000000,512.000000) scale(0.100000,-0.100000)"
fill="#000000" stroke="none">
<path d="M2430 4778 c-35 -15 -182 -80 -265 -118 -38 -18 -95 -52 -126 -75
l-57 -43 -68 18 c-91 23 -284 34 -349 20 -105 -23 -225 -102 -289 -189 -50
-68 -94 -177 -106 -263 -6 -40 -21 -102 -35 -138 -13 -36 -29 -83 -34 -105
-16 -62 -60 -122 -106 -144 -23 -11 -95 -27 -161 -36 -298 -41 -398 -94 -430
-232 -23 -99 -14 -203 25 -288 5 -11 22 -49 37 -85 16 -36 46 -94 67 -129 34
-57 38 -69 32 -107 -4 -30 0 -58 14 -99 l20 -57 -29 -43 c-89 -129 -117 -223
-86 -284 18 -34 86 -96 116 -106 17 -5 20 -12 15 -28 -35 -116 -19 -163 80
-234 l29 -21 -12 -84 c-16 -114 -15 -272 3 -340 26 -102 77 -170 273 -367 196
-198 230 -241 280 -363 98 -237 194 -299 507 -328 192 -18 362 -8 420 23 11 6
72 12 135 12 l115 1 100 48 c130 62 171 67 255 30 50 -22 81 -28 135 -29 63 0
75 3 116 32 35 24 166 159 186 192 1 2 56 -2 122 -9 145 -15 225 -4 317 40 62
30 144 103 144 128 0 7 7 27 16 44 9 17 23 72 31 122 8 50 15 91 16 91 1 0 28
13 60 29 109 54 157 141 157 282 l0 72 68 7 c98 10 219 41 268 70 75 44 125
123 172 275 11 36 43 108 70 160 88 168 111 255 118 450 l6 145 -32 48 c-39
58 -98 100 -200 141 l-77 32 33 52 c40 62 79 155 89 209 4 26 1 55 -10 84 -27
77 -55 229 -55 303 0 92 -24 200 -52 242 -32 46 -126 90 -244 115 -152 32
-244 55 -305 78 -48 18 -59 27 -75 63 -25 55 -49 85 -94 113 -36 23 -38 26
-49 107 -24 170 -59 247 -124 273 -65 26 -129 16 -287 -48 -58 -23 -92 -30
-150 -31 -62 -1 -87 -7 -142 -33 l-66 -31 -20 21 c-11 12 -50 67 -87 122 -84
125 -98 140 -160 176 -46 26 -58 29 -145 28 -52 0 -106 -5 -120 -11z"/>
</g>
</svg>
