<?xml version="1.0" standalone="no"?>
<!DOCTYPE svg PUBLIC "-//W3C//DTD SVG 20010904//EN"
 "http://www.w3.org/TR/2001/REC-SVG-20010904/DTD/svg10.dtd">
<svg version="1.0" xmlns="http://www.w3.org/2000/svg"
 width="948.000000pt" height="948.000000pt" viewBox="0 0 948.000000 948.000000"
 preserveAspectRatio="xMidYMid meet">
<metadata>
Created by potrace 1.11, written by Peter Selinger 2001-2013
</metadata>
<g transform="translate(0.000000,948.000000) scale(0.100000,-0.100000)"
fill="#000000" stroke="none">
<path d="M1560 7466 c-315 -44 -556 -132 -800 -293 -152 -101 -356 -303 -452
-448 -274 -414 -372 -934 -266 -1424 28 -131 61 -228 123 -357 225 -474 667
-771 1255 -844 127 -15 425 -13 547 6 435 64 763 293 981 684 l31 55 -50 77
-51 77 -37 -24 c-149 -99 -447 -154 -677 -125 -520 65 -876 431 -996 1022 -20
100 -23 141 -23 363 0 196 4 270 18 342 75 394 244 643 437 645 122 0 145 -34
518 -777 106 -209 210 -413 232 -452 l41 -73 104 0 104 0 30 98 c16 53 52 173
80 266 27 92 52 170 54 172 5 5 124 -34 159 -52 45 -23 98 -75 119 -115 10
-21 23 -71 28 -111 14 -104 22 -2141 13 -3028 -7 -680 -9 -748 -25 -785 -34
-76 -87 -117 -219 -169 l-38 -15 0 -95 0 -96 975 0 975 0 0 95 0 94 -37 10
c-21 5 -94 24 -162 41 -138 35 -164 46 -203 87 -62 65 -61 54 -69 678 -4 313
-7 570 -6 571 1 1 43 -7 92 -17 119 -26 350 -35 490 -20 246 27 415 75 620
176 446 221 749 620 880 1160 72 293 84 705 31 988 -7 37 -10 67 -7 67 3 0 43
-12 89 -26 68 -20 92 -33 127 -69 83 -82 78 -19 83 -1140 2 -568 -1 -1044 -6
-1117 -15 -194 -47 -242 -203 -305 l-69 -28 0 -97 0 -98 975 0 975 0 0 98 0
97 -151 34 c-231 53 -272 78 -307 190 -16 52 -17 138 -17 1093 l0 1037 30 31
c42 44 112 87 167 101 96 26 179 -27 236 -151 63 -138 160 -385 221 -566 l61
-179 129 -3 c117 -2 130 -1 135 15 21 70 356 1365 356 1375 0 15 -81 67 -150
96 -94 39 -142 47 -285 47 -131 -1 -146 -3 -232 -33 -203 -70 -427 -211 -641
-405 -30 -27 -55 -47 -57 -45 -2 2 -20 100 -40 218 -19 118 -38 227 -41 243
-5 26 -7 27 -77 27 -40 0 -142 -14 -227 -30 -250 -49 -1099 -200 -1123 -200
-3 0 -7 -8 -9 -17 -2 -10 -14 11 -27 47 -144 397 -458 664 -865 736 -123 22
-336 22 -449 0 -239 -46 -496 -169 -743 -355 l-41 -30 -44 192 -44 192 -87 3
c-72 2 -131 -6 -364 -53 -224 -45 -527 -101 -807 -150 -23 -4 -27 -2 -23 13 3
9 35 116 71 237 36 121 68 228 71 238 11 35 -324 175 -545 226 -257 61 -657
86 -871 57z m3145 -1090 c226 -103 367 -400 429 -904 25 -202 39 -505 32 -717
-16 -536 -135 -876 -341 -975 -72 -34 -171 -33 -240 2 -152 78 -255 287 -299
607 -14 94 -16 253 -16 1019 l0 907 36 25 c20 13 66 35 103 48 91 32 212 27
296 -12z"/>
</g>
</svg>
