<svg width="256" height="205" viewBox="0 0 256 205" fill="none" xmlns="http://www.w3.org/2000/svg">
<g filter="url(#filter0_d_89_134)">
<path d="M29.0938 35.7188L18.3438 20.625V47H8.4375V4.5H17.125L30.3438 22.5625L43.7188 4.5H52.375V47H42.5V20.7188L31.5625 35.7188H29.0938ZM59.6562 30.8125C59.6562 28.4375 60.0625 26.2083 60.875 24.125C61.6875 22.0208 62.8438 20.1875 64.3438 18.625C65.8438 17.0625 67.6667 15.8333 69.8125 14.9375C71.9583 14.0208 74.3646 13.5625 77.0312 13.5625C79.1771 13.5625 81.1042 13.9167 82.8125 14.625C84.5208 15.3125 85.9688 16.1354 87.1562 17.0938L87.5625 14.5938H95.7812V47H87.5625L87.125 44.5312C85.9167 45.4896 84.4583 46.3125 82.75 47C81.0625 47.6875 79.1562 48.0312 77.0312 48.0312C74.3854 48.0312 71.9896 47.5833 69.8438 46.6875C67.6979 45.7708 65.8646 44.5417 64.3438 43C62.8438 41.4375 61.6875 39.6146 60.875 37.5312C60.0625 35.4271 59.6562 33.1875 59.6562 30.8125ZM69.3125 30.7812C69.3125 32.1354 69.5417 33.3646 70 34.4688C70.4583 35.5729 71.0729 36.5208 71.8438 37.3125C72.6354 38.1042 73.5521 38.7188 74.5938 39.1562C75.6562 39.5729 76.7812 39.7812 77.9688 39.7812C79.1562 39.7812 80.2708 39.5729 81.3125 39.1562C82.375 38.7188 83.2917 38.1146 84.0625 37.3438C84.8542 36.5521 85.4688 35.6042 85.9062 34.5C86.3646 33.375 86.5938 32.1354 86.5938 30.7812C86.5938 29.4479 86.3646 28.2396 85.9062 27.1562C85.4479 26.0521 84.8229 25.1146 84.0312 24.3438C83.2604 23.5521 82.3438 22.9479 81.2812 22.5312C80.2396 22.0938 79.125 21.875 77.9375 21.875C76.7292 21.875 75.5938 22.0938 74.5312 22.5312C73.4896 22.9479 72.5833 23.5521 71.8125 24.3438C71.0417 25.1146 70.4271 26.0521 69.9688 27.1562C69.5312 28.2396 69.3125 29.4479 69.3125 30.7812ZM105.344 2.96875H115V28.3125L125.75 14.5938H137.062L126.156 28.0938L138.062 47H126.562L119.25 34.4062L115 39.4688V47H105.344V2.96875ZM143.531 14.5938H153.25V47H143.531V14.5938ZM142.688 5.875C142.688 5.1875 142.823 4.53125 143.094 3.90625C143.365 3.28125 143.75 2.73958 144.25 2.28125C144.771 1.80208 145.385 1.42708 146.094 1.15625C146.802 0.885417 147.594 0.75 148.469 0.75C149.344 0.75 150.135 0.885417 150.844 1.15625C151.552 1.42708 152.156 1.80208 152.656 2.28125C153.177 2.73958 153.573 3.28125 153.844 3.90625C154.115 4.53125 154.25 5.1875 154.25 5.875C154.25 6.58333 154.115 7.25 153.844 7.875C153.573 8.47917 153.177 9.01042 152.656 9.46875C152.156 9.92708 151.542 10.2917 150.812 10.5625C150.104 10.8333 149.312 10.9688 148.438 10.9688C147.583 10.9688 146.802 10.8333 146.094 10.5625C145.385 10.2917 144.781 9.92708 144.281 9.46875C143.781 8.98958 143.385 8.44792 143.094 7.84375C142.823 7.21875 142.688 6.5625 142.688 5.875ZM196.594 47H186.875V29.8438C186.875 28.3438 186.719 27.0833 186.406 26.0625C186.094 25.0417 185.656 24.2292 185.094 23.625C184.531 23 183.854 22.5521 183.062 22.2812C182.292 22.0104 181.438 21.875 180.5 21.875C179.312 21.875 178.24 22.1042 177.281 22.5625C176.323 23 175.5 23.6146 174.812 24.4062C174.146 25.1771 173.635 26.1042 173.281 27.1875C172.927 28.2708 172.75 29.4479 172.75 30.7188V47H163.094V14.5938H170.875L171.469 17.0625C172.135 16.5833 172.875 16.1354 173.688 15.7188C174.5 15.2812 175.354 14.9062 176.25 14.5938C177.146 14.2812 178.062 14.0312 179 13.8438C179.958 13.6562 180.927 13.5625 181.906 13.5625C184.49 13.5625 186.708 13.9375 188.562 14.6875C190.417 15.4167 191.938 16.4792 193.125 17.875C194.312 19.25 195.188 20.9271 195.75 22.9062C196.312 24.8854 196.594 27.125 196.594 29.625V47ZM203.094 30.8125C203.094 28.4375 203.5 26.2083 204.312 24.125C205.125 22.0208 206.281 20.1875 207.781 18.625C209.281 17.0625 211.104 15.8333 213.25 14.9375C215.396 14.0208 217.802 13.5625 220.469 13.5625C221.573 13.5625 222.625 13.6667 223.625 13.875C224.625 14.0625 225.552 14.3333 226.406 14.6875C227.281 15.0208 228.083 15.4167 228.812 15.875C229.542 16.3125 230.208 16.7812 230.812 17.2812L231.406 14.5938H239.219V44.5312C239.219 46.9688 238.823 49.1979 238.031 51.2188C237.26 53.2604 236.135 55.0104 234.656 56.4688C233.177 57.9479 231.354 59.0938 229.188 59.9062C227.021 60.7188 224.552 61.125 221.781 61.125C219.823 61.125 218.062 60.9479 216.5 60.5938C214.938 60.2396 213.552 59.7604 212.344 59.1562C211.135 58.5521 210.094 57.8333 209.219 57C208.365 56.1875 207.646 55.3021 207.062 54.3438C206.5 53.4062 206.062 52.4271 205.75 51.4062C205.458 50.4062 205.281 49.4062 205.219 48.4062H214.406C214.615 49.0521 214.906 49.6562 215.281 50.2188C215.677 50.8021 216.167 51.3021 216.75 51.7188C217.354 52.1562 218.062 52.5 218.875 52.75C219.708 53 220.667 53.125 221.75 53.125C223.375 53.125 224.698 52.8438 225.719 52.2812C226.76 51.7396 227.573 51.0521 228.156 50.2188C228.76 49.4062 229.167 48.5312 229.375 47.5938C229.604 46.6771 229.719 45.8438 229.719 45.0938V44.0312C228.469 44.9896 226.99 45.8021 225.281 46.4688C223.594 47.1354 221.677 47.4688 219.531 47.4688C217.115 47.4688 214.896 47.0521 212.875 46.2188C210.854 45.3646 209.115 44.1979 207.656 42.7188C206.219 41.2188 205.094 39.4583 204.281 37.4375C203.49 35.3958 203.094 33.1875 203.094 30.8125ZM212.75 30.7812C212.75 32.1354 212.979 33.3646 213.438 34.4688C213.896 35.5729 214.51 36.5208 215.281 37.3125C216.073 38.1042 216.99 38.7188 218.031 39.1562C219.094 39.5729 220.219 39.7812 221.406 39.7812C222.594 39.7812 223.708 39.5729 224.75 39.1562C225.812 38.7188 226.729 38.1146 227.5 37.3438C228.271 36.5521 228.875 35.6042 229.312 34.5C229.771 33.375 230 32.1354 230 30.7812C230 29.4479 229.771 28.2396 229.312 27.1562C228.875 26.0521 228.26 25.1146 227.469 24.3438C226.698 23.5521 225.781 22.9479 224.719 22.5312C223.677 22.0938 222.562 21.875 221.375 21.875C220.167 21.875 219.031 22.0938 217.969 22.5312C216.927 22.9479 216.021 23.5521 215.25 24.3438C214.479 25.1146 213.865 26.0521 213.406 27.1562C212.969 28.2396 212.75 29.4479 212.75 30.7812ZM29.0938 104.719L18.3438 89.625V116H8.4375V73.5H17.125L30.3438 91.5625L43.7188 73.5H52.375V116H42.5V89.7188L31.5625 104.719H29.0938ZM59.6875 99.8125C59.6875 97.4375 60.125 95.2083 61 93.125C61.875 91.0208 63.1042 89.1875 64.6875 87.625C66.2917 86.0625 68.1979 84.8333 70.4062 83.9375C72.6146 83.0208 75.0521 82.5625 77.7188 82.5625C80.3854 82.5625 82.8229 83.0208 85.0312 83.9375C87.2604 84.8333 89.1667 86.0625 90.75 87.625C92.3542 89.1875 93.5938 91.0208 94.4688 93.125C95.3646 95.2083 95.8125 97.4375 95.8125 99.8125C95.8125 102.188 95.3646 104.427 94.4688 106.531C93.5938 108.615 92.3542 110.438 90.75 112C89.1667 113.562 87.2604 114.792 85.0312 115.688C82.8021 116.583 80.3438 117.031 77.6562 117.031C75.0312 117.031 72.6146 116.583 70.4062 115.688C68.1979 114.771 66.3021 113.542 64.7188 112C63.1354 110.438 61.8958 108.615 61 106.531C60.125 104.427 59.6875 102.188 59.6875 99.8125ZM69.3438 99.7812C69.3438 101.135 69.5625 102.365 70 103.469C70.4375 104.552 71.0417 105.49 71.8125 106.281C72.5833 107.073 73.4792 107.688 74.5 108.125C75.5208 108.542 76.6146 108.75 77.7812 108.75C78.9688 108.75 80.0729 108.542 81.0938 108.125C82.1146 107.688 83 107.083 83.75 106.312C84.5 105.521 85.0938 104.573 85.5312 103.469C85.9688 102.365 86.1875 101.135 86.1875 99.7812C86.1875 98.4479 85.9688 97.2396 85.5312 96.1562C85.0938 95.0521 84.4896 94.1146 83.7188 93.3438C82.9688 92.5521 82.0833 91.9479 81.0625 91.5312C80.0417 91.0938 78.9375 90.875 77.75 90.875C76.5833 90.875 75.4896 91.0938 74.4688 91.5312C73.4479 91.9479 72.5521 92.5521 71.7812 93.3438C71.0312 94.1146 70.4375 95.0521 70 96.1562C69.5625 97.2396 69.3438 98.4479 69.3438 99.7812ZM101.719 99.8125C101.719 97.4375 102.115 95.2083 102.906 93.125C103.698 91.0208 104.833 89.1875 106.312 87.625C107.812 86.0625 109.615 84.8229 111.719 83.9062C113.844 82.9896 116.24 82.5312 118.906 82.5312C120.865 82.5312 122.604 82.8021 124.125 83.3438C125.667 83.8854 127.031 84.5833 128.219 85.4375V71.9688H137.844V116H129.625L129.156 113.344C127.948 114.385 126.49 115.271 124.781 116C123.094 116.729 121.198 117.094 119.094 117.094C116.448 117.094 114.052 116.646 111.906 115.75C109.76 114.833 107.927 113.594 106.406 112.031C104.906 110.448 103.75 108.615 102.938 106.531C102.125 104.427 101.719 102.188 101.719 99.8125ZM111.406 99.7812C111.406 101.135 111.625 102.365 112.062 103.469C112.521 104.573 113.135 105.521 113.906 106.312C114.698 107.104 115.615 107.719 116.656 108.156C117.719 108.573 118.844 108.781 120.031 108.781C121.219 108.781 122.333 108.573 123.375 108.156C124.438 107.719 125.354 107.115 126.125 106.344C126.917 105.552 127.531 104.604 127.969 103.5C128.427 102.375 128.656 101.135 128.656 99.7812C128.656 98.4479 128.427 97.2396 127.969 96.1562C127.531 95.0521 126.917 94.1146 126.125 93.3438C125.354 92.5521 124.438 91.9479 123.375 91.5312C122.333 91.0938 121.208 90.875 120 90.875C118.792 90.875 117.656 91.0938 116.594 91.5312C115.552 91.9479 114.646 92.5521 113.875 93.3438C113.104 94.1146 112.5 95.0521 112.062 96.1562C111.625 97.2396 111.406 98.4479 111.406 99.7812ZM145.844 99.8125C145.844 97.4375 146.281 95.2083 147.156 93.125C148.031 91.0208 149.26 89.1875 150.844 87.625C152.448 86.0625 154.344 84.8333 156.531 83.9375C158.74 83.0208 161.177 82.5625 163.844 82.5625C166.531 82.5625 168.979 83.0208 171.188 83.9375C173.417 84.8333 175.323 86.0625 176.906 87.625C178.51 89.1875 179.75 91.0208 180.625 93.125C181.521 95.2083 181.969 97.4375 181.969 99.8125C181.969 100.479 181.938 101 181.875 101.375C181.833 101.75 181.781 102.125 181.719 102.5H155.438C155.708 103.521 156.125 104.438 156.688 105.25C157.271 106.062 157.938 106.76 158.688 107.344C159.458 107.906 160.281 108.344 161.156 108.656C162.052 108.969 162.969 109.125 163.906 109.125C165.427 109.125 166.75 108.802 167.875 108.156C169 107.51 169.854 106.688 170.438 105.688H180.875C180.396 107.104 179.667 108.5 178.688 109.875C177.708 111.229 176.5 112.438 175.062 113.5C173.625 114.562 171.958 115.417 170.062 116.062C168.188 116.708 166.115 117.031 163.844 117.031C161.198 117.031 158.771 116.583 156.562 115.688C154.354 114.771 152.458 113.531 150.875 111.969C149.292 110.406 148.052 108.583 147.156 106.5C146.281 104.396 145.844 102.167 145.844 99.8125ZM163.906 90.2188C161.885 90.2188 160.177 90.7292 158.781 91.75C157.385 92.7708 156.375 94.1146 155.75 95.7812H171.688C171.083 94.1354 170.125 92.8021 168.812 91.7812C167.5 90.7396 165.865 90.2188 163.906 90.2188ZM211.531 92L207.469 92.0312C204.802 92.0312 202.719 92.7708 201.219 94.25C199.74 95.7292 199 97.9583 199 100.938V116H189.375V83.5938H197.125L197.875 86.6562C198.917 85.7812 200.177 85.0521 201.656 84.4688C203.156 83.8854 204.917 83.5938 206.938 83.5938H211.531V92ZM251.344 116H241.625V98.8438C241.625 97.3438 241.469 96.0833 241.156 95.0625C240.844 94.0417 240.406 93.2292 239.844 92.625C239.281 92 238.604 91.5521 237.812 91.2812C237.042 91.0104 236.188 90.875 235.25 90.875C234.062 90.875 232.99 91.1042 232.031 91.5625C231.073 92 230.25 92.6146 229.562 93.4062C228.896 94.1771 228.385 95.1042 228.031 96.1875C227.677 97.2708 227.5 98.4479 227.5 99.7188V116H217.844V83.5938H225.625L226.219 86.0625C226.885 85.5833 227.625 85.1354 228.438 84.7188C229.25 84.2812 230.104 83.9062 231 83.5938C231.896 83.2812 232.812 83.0312 233.75 82.8438C234.708 82.6562 235.677 82.5625 236.656 82.5625C239.24 82.5625 241.458 82.9375 243.312 83.6875C245.167 84.4167 246.688 85.4792 247.875 86.875C249.062 88.25 249.938 89.9271 250.5 91.9062C251.062 93.8854 251.344 96.125 251.344 98.625V116ZM35.6562 178.25H17.8438L15.1562 185H4.6875L22.0938 142.469H31.4062L48.8125 185H38.375L35.6562 178.25ZM21.25 169.812H32.25L27.0938 156.969L26.7812 155.594H26.7188L26.4062 156.969L21.25 169.812ZM90.2812 168.781C90.2812 171.156 89.8854 173.396 89.0938 175.5C88.3021 177.583 87.1667 179.406 85.6875 180.969C84.2083 182.531 82.4062 183.771 80.2812 184.688C78.1562 185.583 75.7604 186.031 73.0938 186.031C71.1354 186.031 69.3854 185.76 67.8438 185.219C66.3229 184.698 64.9792 184.01 63.8125 183.156V196.062H54.1562V152.594H61.9375L62.5625 155.344C63.1667 154.844 63.8333 154.365 64.5625 153.906C65.3125 153.448 66.125 153.052 67 152.719C67.875 152.365 68.8021 152.083 69.7812 151.875C70.7812 151.667 71.8333 151.562 72.9375 151.562C75.5833 151.562 77.9688 152.021 80.0938 152.938C82.2396 153.833 84.0625 155.062 85.5625 156.625C87.0833 158.167 88.25 159.99 89.0625 162.094C89.875 164.177 90.2812 166.406 90.2812 168.781ZM80.5938 168.812C80.5938 167.458 80.3646 166.229 79.9062 165.125C79.4688 164.021 78.8542 163.073 78.0625 162.281C77.2917 161.49 76.375 160.885 75.3125 160.469C74.2708 160.031 73.1562 159.812 71.9688 159.812C70.7604 159.812 69.6354 160.031 68.5938 160.469C67.5521 160.885 66.6354 161.49 65.8438 162.281C65.0729 163.052 64.4583 164 64 165.125C63.5625 166.229 63.3438 167.458 63.3438 168.812C63.3438 170.146 63.5729 171.365 64.0312 172.469C64.4896 173.552 65.1042 174.49 65.875 175.281C66.6667 176.052 67.5833 176.656 68.625 177.094C69.6875 177.51 70.8125 177.719 72 177.719C73.2083 177.719 74.3333 177.51 75.375 177.094C76.4375 176.656 77.3542 176.052 78.125 175.281C78.8958 174.51 79.5 173.583 79.9375 172.5C80.375 171.396 80.5938 170.167 80.5938 168.812ZM133.906 168.781C133.906 171.156 133.51 173.396 132.719 175.5C131.927 177.583 130.792 179.406 129.312 180.969C127.833 182.531 126.031 183.771 123.906 184.688C121.781 185.583 119.385 186.031 116.719 186.031C114.76 186.031 113.01 185.76 111.469 185.219C109.948 184.698 108.604 184.01 107.438 183.156V196.062H97.7812V152.594H105.562L106.188 155.344C106.792 154.844 107.458 154.365 108.188 153.906C108.938 153.448 109.75 153.052 110.625 152.719C111.5 152.365 112.427 152.083 113.406 151.875C114.406 151.667 115.458 151.562 116.562 151.562C119.208 151.562 121.594 152.021 123.719 152.938C125.865 153.833 127.688 155.062 129.188 156.625C130.708 158.167 131.875 159.99 132.688 162.094C133.5 164.177 133.906 166.406 133.906 168.781ZM124.219 168.812C124.219 167.458 123.99 166.229 123.531 165.125C123.094 164.021 122.479 163.073 121.688 162.281C120.917 161.49 120 160.885 118.938 160.469C117.896 160.031 116.781 159.812 115.594 159.812C114.385 159.812 113.26 160.031 112.219 160.469C111.177 160.885 110.26 161.49 109.469 162.281C108.698 163.052 108.083 164 107.625 165.125C107.188 166.229 106.969 167.458 106.969 168.812C106.969 170.146 107.198 171.365 107.656 172.469C108.115 173.552 108.729 174.49 109.5 175.281C110.292 176.052 111.208 176.656 112.25 177.094C113.312 177.51 114.438 177.719 115.625 177.719C116.833 177.719 117.958 177.51 119 177.094C120.062 176.656 120.979 176.052 121.75 175.281C122.521 174.51 123.125 173.583 123.562 172.5C124 171.396 124.219 170.167 124.219 168.812ZM148.281 174.875C148.365 175.854 148.865 176.646 149.781 177.25C150.719 177.854 151.896 178.156 153.312 178.156C155.146 178.156 156.469 177.917 157.281 177.438C158.094 176.958 158.5 176.281 158.5 175.406C158.5 174.885 158.312 174.469 157.938 174.156C157.562 173.823 157.01 173.531 156.281 173.281C155.552 173.031 154.656 172.802 153.594 172.594C152.531 172.385 151.302 172.125 149.906 171.812C149.281 171.688 148.594 171.542 147.844 171.375C147.094 171.188 146.344 170.948 145.594 170.656C144.865 170.344 144.156 169.969 143.469 169.531C142.781 169.073 142.167 168.51 141.625 167.844C141.104 167.177 140.688 166.385 140.375 165.469C140.062 164.531 139.906 163.438 139.906 162.188C139.906 160.542 140.198 159.062 140.781 157.75C141.385 156.417 142.292 155.302 143.5 154.406C144.708 153.49 146.229 152.792 148.062 152.312C149.896 151.812 152.052 151.562 154.531 151.562C156.552 151.562 158.365 151.823 159.969 152.344C161.594 152.865 162.969 153.604 164.094 154.562C165.219 155.521 166.073 156.667 166.656 158C167.26 159.312 167.562 160.76 167.562 162.344L157.875 162.312C157.812 161.521 157.438 160.844 156.75 160.281C156.062 159.698 155.094 159.406 153.844 159.406C152.365 159.406 151.271 159.677 150.562 160.219C149.854 160.76 149.51 161.385 149.531 162.094C149.531 162.51 149.646 162.865 149.875 163.156C150.125 163.427 150.5 163.667 151 163.875C151.521 164.062 152.177 164.229 152.969 164.375C153.76 164.521 154.708 164.667 155.812 164.812C157.521 165.104 159.146 165.458 160.688 165.875C162.229 166.271 163.583 166.833 164.75 167.562C165.938 168.271 166.875 169.208 167.562 170.375C168.25 171.521 168.594 172.979 168.594 174.75C168.594 176.688 168.208 178.375 167.438 179.812C166.667 181.229 165.583 182.406 164.188 183.344C162.812 184.281 161.167 184.969 159.25 185.406C157.333 185.865 155.229 186.094 152.938 186.094C150.438 186.094 148.292 185.76 146.5 185.094C144.729 184.427 143.271 183.562 142.125 182.5C140.979 181.417 140.135 180.208 139.594 178.875C139.052 177.521 138.781 176.177 138.781 174.844L148.281 174.875ZM173.906 180.875C173.906 180.188 174.031 179.542 174.281 178.938C174.531 178.312 174.885 177.771 175.344 177.312C175.802 176.854 176.354 176.49 177 176.219C177.667 175.948 178.396 175.812 179.188 175.812C180 175.812 180.729 175.948 181.375 176.219C182.021 176.49 182.573 176.854 183.031 177.312C183.51 177.771 183.875 178.312 184.125 178.938C184.375 179.542 184.5 180.188 184.5 180.875C184.5 181.562 184.375 182.219 184.125 182.844C183.875 183.448 183.51 183.979 183.031 184.438C182.573 184.896 182.021 185.25 181.375 185.5C180.729 185.771 180 185.906 179.188 185.906C178.396 185.906 177.667 185.771 177 185.5C176.354 185.229 175.802 184.875 175.344 184.438C174.885 183.979 174.531 183.448 174.281 182.844C174.031 182.219 173.906 181.562 173.906 180.875Z" fill="#0F0F0F"/>
</g>
<defs>
<filter id="filter0_d_89_134" x="0.6875" y="0.75" width="254.656" height="203.312" filterUnits="userSpaceOnUse" color-interpolation-filters="sRGB">
<feFlood flood-opacity="0" result="BackgroundImageFix"/>
<feColorMatrix in="SourceAlpha" type="matrix" values="0 0 0 0 0 0 0 0 0 0 0 0 0 0 0 0 0 0 127 0" result="hardAlpha"/>
<feOffset dy="4"/>
<feGaussianBlur stdDeviation="2"/>
<feComposite in2="hardAlpha" operator="out"/>
<feColorMatrix type="matrix" values="0 0 0 0 0 0 0 0 0 0 0 0 0 0 0 0 0 0 0.1 0"/>
<feBlend mode="normal" in2="BackgroundImageFix" result="effect1_dropShadow_89_134"/>
<feBlend mode="normal" in="SourceGraphic" in2="effect1_dropShadow_89_134" result="shape"/>
</filter>
</defs>
</svg>
