<svg width="877" height="54" viewBox="0 0 877 54" fill="none" xmlns="http://www.w3.org/2000/svg">
<g filter="url(#filter0_d_105_61)">
<g filter="url(#filter1_bi_105_61)">
<path d="M1 11C1 4.92487 5.92487 0 12 0H865C871.075 0 876 4.92487 876 11V52H1V11Z" fill="#F5F5F5" fill-opacity="0.57" style="mix-blend-mode:hard-light"/>
</g>
<circle cx="68" cy="25" r="6" fill="#DDDDDD"/>
<circle cx="48" cy="25" r="6" fill="#9E9E9E"/>
<circle cx="28" cy="25" r="6" fill="#3F3F3F"/>
<circle cx="28" cy="25" r="5.75" stroke="black" stroke-opacity="0.1" stroke-width="0.5" style="mix-blend-mode:luminosity"/>
<circle cx="48" cy="25" r="5.75" stroke="#F13333" stroke-opacity="0.1" stroke-width="0.5" style="mix-blend-mode:luminosity"/>
<circle cx="68" cy="25" r="5.75" stroke="black" stroke-opacity="0.03" stroke-width="0.5" style="mix-blend-mode:luminosity"/>
<g style="mix-blend-mode:luminosity">
<g style="mix-blend-mode:luminosity">
<path d="M808 33.0156C808.492 33.0156 808.891 32.6094 808.891 32.1484V27.2578H813.656C814.133 27.2578 814.539 26.8594 814.539 26.3672C814.539 25.8828 814.133 25.4766 813.656 25.4766H808.891V20.5859C808.891 20.1172 808.492 19.7188 808 19.7188C807.516 19.7188 807.109 20.1172 807.109 20.5859V25.4766H802.344C801.883 25.4766 801.461 25.8828 801.461 26.3672C801.461 26.8594 801.883 27.2578 802.344 27.2578H807.109V32.1484C807.109 32.6094 807.516 33.0156 808 33.0156Z" fill="#797979"/>
</g>
</g>
<g style="mix-blend-mode:luminosity">
<g style="mix-blend-mode:luminosity">
<path d="M836.586 31.0391H837.914V32.2188C837.914 33.8906 838.797 34.7656 840.484 34.7656H848.406C850.094 34.7656 850.977 33.8906 850.977 32.2188V24.2422C850.977 22.5703 850.094 21.6953 848.406 21.6953H847.078V20.5234C847.078 18.8516 846.195 17.9766 844.508 17.9766H836.586C834.891 17.9766 834.016 18.8516 834.016 20.5234V28.4922C834.016 30.1719 834.891 31.0391 836.586 31.0391ZM836.688 29.4844C835.969 29.4844 835.57 29.1094 835.57 28.3516V20.6641C835.57 19.9062 835.969 19.5391 836.688 19.5391H844.406C845.117 19.5391 845.523 19.9062 845.523 20.6641V21.6953H840.484C838.797 21.6953 837.914 22.5703 837.914 24.2422V29.4844H836.688ZM840.586 33.2031C839.867 33.2031 839.477 32.8281 839.477 32.0781V24.3828C839.477 23.6328 839.867 23.2578 840.586 23.2578H848.305C849.023 23.2578 849.422 23.6328 849.422 24.3828V32.0781C849.422 32.8281 849.023 33.2031 848.305 33.2031H840.586Z" fill="#797979"/>
</g>
</g>
<g style="mix-blend-mode:luminosity">
<path d="M102.812 33.6719H116.18C117.875 33.6719 118.758 32.7969 118.758 31.125V21.6172C118.758 19.9453 117.875 19.0703 116.18 19.0703H102.812C101.125 19.0703 100.242 19.9375 100.242 21.6172V31.125C100.242 32.7969 101.125 33.6719 102.812 33.6719ZM102.914 32.1172C102.195 32.1172 101.797 31.7422 101.797 30.9844V21.7578C101.797 21 102.195 20.625 102.914 20.625H106.477V32.1172H102.914ZM116.078 20.625C116.797 20.625 117.195 21 117.195 21.7578V30.9844C117.195 31.7422 116.797 32.1172 116.078 32.1172H107.953V20.625H116.078ZM104.945 23.4844C105.227 23.4844 105.461 23.2422 105.461 22.9766C105.461 22.7109 105.227 22.4766 104.945 22.4766H103.344C103.062 22.4766 102.828 22.7109 102.828 22.9766C102.828 23.2422 103.062 23.4844 103.344 23.4844H104.945ZM104.945 25.5859C105.227 25.5859 105.461 25.3516 105.461 25.0781C105.461 24.8125 105.227 24.5781 104.945 24.5781H103.344C103.062 24.5781 102.828 24.8125 102.828 25.0781C102.828 25.3516 103.062 25.5859 103.344 25.5859H104.945ZM104.945 27.6797C105.227 27.6797 105.461 27.4531 105.461 27.1797C105.461 26.9141 105.227 26.6875 104.945 26.6875H103.344C103.062 26.6875 102.828 26.9141 102.828 27.1797C102.828 27.4531 103.062 27.6797 103.344 27.6797H104.945Z" fill="#797979"/>
</g>
<rect x="287" y="13" width="339" height="26" rx="4" fill="black" fill-opacity="0.05"/>
<g opacity="0.5">
<g style="mix-blend-mode:luminosity">
<path d="M363.94 29.998C364.949 29.998 365.895 29.6934 366.682 29.1729L369.462 31.9595C369.646 32.1372 369.881 32.2261 370.135 32.2261C370.662 32.2261 371.049 31.8135 371.049 31.293C371.049 31.0518 370.967 30.8169 370.789 30.6392L368.028 27.8652C368.599 27.0591 368.936 26.0688 368.936 25.0024C368.936 22.2539 366.688 20.0068 363.94 20.0068C361.198 20.0068 358.944 22.2539 358.944 25.0024C358.944 27.751 361.191 29.998 363.94 29.998ZM363.94 28.665C361.928 28.665 360.277 27.0146 360.277 25.0024C360.277 22.9966 361.928 21.3398 363.94 21.3398C365.952 21.3398 367.603 22.9966 367.603 25.0024C367.603 27.0146 365.952 28.665 363.94 28.665Z" fill="#797979"/>
</g>
<g style="mix-blend-mode:luminosity">
<path d="M381.17 31.0137C383.214 31.0137 384.554 29.9473 384.554 28.2334V28.2271C384.554 26.9067 383.798 26.1387 381.888 25.7134L380.872 25.4849C379.628 25.2119 379.126 24.7168 379.126 23.9868V23.9805C379.126 23.022 380.009 22.4824 381.151 22.4761C382.345 22.4697 383.106 23.0664 383.233 23.8726L383.246 23.9551H384.389L384.382 23.8662C384.287 22.5015 383.011 21.4224 381.183 21.4224C379.292 21.4224 377.965 22.4951 377.958 24.0122V24.0186C377.958 25.3452 378.752 26.1895 380.586 26.5957L381.602 26.8179C382.859 27.0972 383.386 27.6177 383.386 28.3794V28.3857C383.386 29.3188 382.478 29.96 381.234 29.96C379.914 29.96 378.961 29.3823 378.879 28.4683L378.873 28.3984H377.73L377.736 28.4683C377.87 29.96 379.165 31.0137 381.17 31.0137ZM389.111 30.9185C390.724 30.9185 391.701 30.0044 391.936 29.0776L391.949 29.0269H390.844L390.819 29.084C390.635 29.4966 390.063 29.9346 389.137 29.9346C387.918 29.9346 387.137 29.1094 387.105 27.6938H392.031V27.2622C392.031 25.2183 390.901 23.8345 389.042 23.8345C387.182 23.8345 385.976 25.2817 385.976 27.3955V27.4019C385.976 29.5474 387.156 30.9185 389.111 30.9185ZM389.035 24.8184C390.044 24.8184 390.793 25.4595 390.908 26.8115H387.125C387.245 25.5103 388.02 24.8184 389.035 24.8184ZM395.624 30.9185C396.544 30.9185 397.262 30.5186 397.693 29.7886H397.795V30.7979H398.899V26.1133C398.899 24.6914 397.966 23.8345 396.297 23.8345C394.837 23.8345 393.796 24.5581 393.618 25.6309L393.612 25.6689H394.716L394.723 25.6499C394.9 25.1167 395.44 24.812 396.259 24.812C397.281 24.812 397.795 25.269 397.795 26.1133V26.7354L395.833 26.856C394.24 26.9512 393.339 27.6558 393.339 28.8745V28.8872C393.339 30.1313 394.323 30.9185 395.624 30.9185ZM394.469 28.8618V28.8491C394.469 28.1699 394.926 27.8018 395.967 27.7383L397.795 27.624V28.2461C397.795 29.2236 396.976 29.96 395.853 29.96C395.059 29.96 394.469 29.5537 394.469 28.8618ZM400.918 30.7979H402.022V26.5576C402.022 25.5547 402.771 24.8882 403.825 24.8882C404.066 24.8882 404.276 24.9136 404.504 24.9517V23.8789C404.396 23.8599 404.162 23.8345 403.952 23.8345C403.025 23.8345 402.384 24.2534 402.124 24.9707H402.022V23.9551H400.918V30.7979ZM408.478 30.9185C410.122 30.9185 411.042 30.0361 411.322 28.7983L411.334 28.7285L410.243 28.7349L410.23 28.7729C409.976 29.5347 409.392 29.9409 408.472 29.9409C407.253 29.9409 406.466 28.9316 406.466 27.3574V27.3447C406.466 25.8022 407.24 24.812 408.472 24.812C409.456 24.812 410.065 25.3579 410.236 26.0308L410.243 26.0498H411.341L411.334 26.0117C411.131 24.793 410.135 23.8345 408.472 23.8345C406.555 23.8345 405.336 25.2183 405.336 27.3447V27.3574C405.336 29.5283 406.561 30.9185 408.478 30.9185ZM413.017 30.7979H414.121V26.748C414.121 25.5483 414.813 24.812 415.905 24.812C416.997 24.812 417.504 25.4023 417.504 26.6338V30.7979H418.609V26.3672C418.609 24.7422 417.752 23.8345 416.216 23.8345C415.207 23.8345 414.565 24.2598 414.223 24.9834H414.121V21.2383H413.017V30.7979ZM427.089 30.9185C429.038 30.9185 430.244 29.5728 430.244 27.3828V27.3701C430.244 25.1738 429.038 23.8345 427.089 23.8345C425.141 23.8345 423.935 25.1738 423.935 27.3701V27.3828C423.935 29.5728 425.141 30.9185 427.089 30.9185ZM427.089 29.9409C425.794 29.9409 425.064 28.9951 425.064 27.3828V27.3701C425.064 25.7515 425.794 24.812 427.089 24.812C428.384 24.812 429.114 25.7515 429.114 27.3701V27.3828C429.114 28.9951 428.384 29.9409 427.089 29.9409ZM431.958 30.7979H433.062V26.5576C433.062 25.5547 433.812 24.8882 434.865 24.8882C435.106 24.8882 435.316 24.9136 435.544 24.9517V23.8789C435.437 23.8599 435.202 23.8345 434.992 23.8345C434.065 23.8345 433.424 24.2534 433.164 24.9707H433.062V23.9551H431.958V30.7979ZM443.371 30.9185C444.983 30.9185 445.961 30.0044 446.196 29.0776L446.208 29.0269H445.104L445.079 29.084C444.895 29.4966 444.323 29.9346 443.396 29.9346C442.178 29.9346 441.397 29.1094 441.365 27.6938H446.291V27.2622C446.291 25.2183 445.161 23.8345 443.301 23.8345C441.441 23.8345 440.235 25.2817 440.235 27.3955V27.4019C440.235 29.5474 441.416 30.9185 443.371 30.9185ZM443.295 24.8184C444.304 24.8184 445.053 25.4595 445.167 26.8115H441.384C441.505 25.5103 442.279 24.8184 443.295 24.8184ZM448.005 30.7979H449.109V26.748C449.109 25.5483 449.801 24.812 450.893 24.812C451.985 24.812 452.493 25.4023 452.493 26.6338V30.7979H453.597V26.3672C453.597 24.7422 452.74 23.8345 451.204 23.8345C450.195 23.8345 449.554 24.2598 449.211 24.9834H449.109V23.9551H448.005V30.7979ZM458.028 30.8486C458.244 30.8486 458.453 30.8232 458.669 30.7852V29.8457C458.466 29.8647 458.358 29.8711 458.161 29.8711C457.45 29.8711 457.171 29.5474 457.171 28.7412V24.8691H458.669V23.9551H457.171V22.1841H456.028V23.9551H454.949V24.8691H456.028V29.0205C456.028 30.3281 456.619 30.8486 458.028 30.8486ZM463.011 30.9185C464.623 30.9185 465.601 30.0044 465.835 29.0776L465.848 29.0269H464.744L464.718 29.084C464.534 29.4966 463.963 29.9346 463.036 29.9346C461.817 29.9346 461.037 29.1094 461.005 27.6938H465.931V27.2622C465.931 25.2183 464.801 23.8345 462.941 23.8345C461.081 23.8345 459.875 25.2817 459.875 27.3955V27.4019C459.875 29.5474 461.056 30.9185 463.011 30.9185ZM462.935 24.8184C463.944 24.8184 464.693 25.4595 464.807 26.8115H461.024C461.145 25.5103 461.919 24.8184 462.935 24.8184ZM467.645 30.7979H468.749V26.5576C468.749 25.5547 469.498 24.8882 470.552 24.8882C470.793 24.8882 471.002 24.9136 471.231 24.9517V23.8789C471.123 23.8599 470.888 23.8345 470.679 23.8345C469.752 23.8345 469.111 24.2534 468.851 24.9707H468.749V23.9551H467.645V30.7979ZM477.585 30.7979H478.689L480.213 25.5039H480.314L481.844 30.7979H482.955L484.872 23.9551H483.774L482.428 29.4268H482.327L480.797 23.9551H479.75L478.22 29.4268H478.118L476.772 23.9551H475.668L477.585 30.7979ZM488.871 30.9185C490.483 30.9185 491.461 30.0044 491.696 29.0776L491.708 29.0269H490.604L490.579 29.084C490.395 29.4966 489.823 29.9346 488.896 29.9346C487.678 29.9346 486.897 29.1094 486.865 27.6938H491.791V27.2622C491.791 25.2183 490.661 23.8345 488.801 23.8345C486.941 23.8345 485.735 25.2817 485.735 27.3955V27.4019C485.735 29.5474 486.916 30.9185 488.871 30.9185ZM488.795 24.8184C489.804 24.8184 490.553 25.4595 490.667 26.8115H486.884C487.005 25.5103 487.779 24.8184 488.795 24.8184ZM496.907 30.9185C498.64 30.9185 499.776 29.5156 499.776 27.3828V27.3701C499.776 25.2246 498.646 23.8345 496.907 23.8345C495.968 23.8345 495.149 24.3042 494.774 25.0342H494.673V21.2383H493.568V30.7979H494.673V29.7061H494.774C495.193 30.4678 495.955 30.9185 496.907 30.9185ZM496.653 29.9409C495.409 29.9409 494.647 28.9634 494.647 27.3828V27.3701C494.647 25.7896 495.409 24.812 496.653 24.812C497.904 24.812 498.646 25.7769 498.646 27.3701V27.3828C498.646 28.9761 497.904 29.9409 496.653 29.9409ZM503.839 30.9185C505.394 30.9185 506.581 30.0742 506.581 28.8555V28.8428C506.581 27.8652 505.959 27.3066 504.67 26.9956L503.617 26.7417C502.811 26.5449 502.468 26.2529 502.468 25.7896V25.7769C502.468 25.1738 503.064 24.7549 503.877 24.7549C504.702 24.7549 505.235 25.1294 505.381 25.6689H506.467C506.314 24.5518 505.318 23.8345 503.883 23.8345C502.43 23.8345 501.338 24.6914 501.338 25.8276V25.834C501.338 26.8179 501.916 27.3765 503.198 27.6812L504.258 27.9351C505.102 28.1382 505.451 28.4619 505.451 28.9253V28.938C505.451 29.5601 504.797 29.998 503.877 29.998C503.001 29.998 502.455 29.6235 502.271 29.0522H501.141C501.268 30.1821 502.315 30.9185 503.839 30.9185ZM508.879 22.6348C509.298 22.6348 509.641 22.292 509.641 21.873C509.641 21.4541 509.298 21.1113 508.879 21.1113C508.46 21.1113 508.117 21.4541 508.117 21.873C508.117 22.292 508.46 22.6348 508.879 22.6348ZM508.32 30.7979H509.425V23.9551H508.32V30.7979ZM513.938 30.8486C514.154 30.8486 514.363 30.8232 514.579 30.7852V29.8457C514.376 29.8647 514.268 29.8711 514.071 29.8711C513.36 29.8711 513.081 29.5474 513.081 28.7412V24.8691H514.579V23.9551H513.081V22.1841H511.938V23.9551H510.859V24.8691H511.938V29.0205C511.938 30.3281 512.529 30.8486 513.938 30.8486ZM518.921 30.9185C520.533 30.9185 521.511 30.0044 521.746 29.0776L521.758 29.0269H520.654L520.628 29.084C520.444 29.4966 519.873 29.9346 518.946 29.9346C517.728 29.9346 516.947 29.1094 516.915 27.6938H521.841V27.2622C521.841 25.2183 520.711 23.8345 518.851 23.8345C516.991 23.8345 515.785 25.2817 515.785 27.3955V27.4019C515.785 29.5474 516.966 30.9185 518.921 30.9185ZM518.845 24.8184C519.854 24.8184 520.603 25.4595 520.717 26.8115H516.934C517.055 25.5103 517.829 24.8184 518.845 24.8184ZM527.224 30.7979H528.328V26.748C528.328 25.5483 529.02 24.812 530.112 24.812C531.204 24.812 531.711 25.4023 531.711 26.6338V30.7979H532.816V26.3672C532.816 24.7422 531.959 23.8345 530.423 23.8345C529.414 23.8345 528.772 24.2598 528.43 24.9834H528.328V23.9551H527.224V30.7979ZM536.694 30.9185C537.615 30.9185 538.332 30.5186 538.764 29.7886H538.865V30.7979H539.97V26.1133C539.97 24.6914 539.037 23.8345 537.367 23.8345C535.907 23.8345 534.866 24.5581 534.688 25.6309L534.682 25.6689H535.787L535.793 25.6499C535.971 25.1167 536.51 24.812 537.329 24.812C538.351 24.812 538.865 25.269 538.865 26.1133V26.7354L536.904 26.856C535.311 26.9512 534.409 27.6558 534.409 28.8745V28.8872C534.409 30.1313 535.393 30.9185 536.694 30.9185ZM535.539 28.8618V28.8491C535.539 28.1699 535.996 27.8018 537.037 27.7383L538.865 27.624V28.2461C538.865 29.2236 538.046 29.96 536.923 29.96C536.129 29.96 535.539 29.5537 535.539 28.8618ZM541.988 30.7979H543.093V26.5576C543.093 25.5928 543.772 24.812 544.667 24.812C545.53 24.812 546.089 25.3389 546.089 26.1514V30.7979H547.193V26.3989C547.193 25.5293 547.822 24.812 548.774 24.812C549.739 24.812 550.202 25.3135 550.202 26.3228V30.7979H551.307V26.0688C551.307 24.6343 550.526 23.8345 549.129 23.8345C548.184 23.8345 547.403 24.3105 547.035 25.0342H546.933C546.616 24.3232 545.968 23.8345 545.042 23.8345C544.146 23.8345 543.499 24.2598 543.194 24.9961H543.093V23.9551H541.988V30.7979ZM556.093 30.9185C557.705 30.9185 558.683 30.0044 558.917 29.0776L558.93 29.0269H557.826L557.8 29.084C557.616 29.4966 557.045 29.9346 556.118 29.9346C554.899 29.9346 554.119 29.1094 554.087 27.6938H559.013V27.2622C559.013 25.2183 557.883 23.8345 556.023 23.8345C554.163 23.8345 552.957 25.2817 552.957 27.3955V27.4019C552.957 29.5474 554.138 30.9185 556.093 30.9185ZM556.017 24.8184C557.026 24.8184 557.775 25.4595 557.889 26.8115H554.106C554.227 25.5103 555.001 24.8184 556.017 24.8184Z" fill="#797979"/>
</g>
</g>
<g style="mix-blend-mode:luminosity">
<path d="M266.5 34.5C266.641 34.5 266.852 34.4531 267.047 34.3438C271.547 31.8984 273.109 30.7656 273.109 27.9219V22.0234C273.109 21.0859 272.742 20.75 271.961 20.4141C271.094 20.0469 268.18 19.0312 267.328 18.7422C267.07 18.6562 266.766 18.6016 266.5 18.6016C266.234 18.6016 265.93 18.6719 265.672 18.7422C264.82 18.9844 261.906 20.0547 261.039 20.4141C260.258 20.7422 259.891 21.0859 259.891 22.0234V27.9219C259.891 30.7656 261.461 31.8828 265.945 34.3438C266.148 34.4531 266.359 34.5 266.5 34.5ZM266.922 20.1797C267.945 20.5859 270.172 21.375 271.344 21.7891C271.562 21.875 271.617 21.9922 271.617 22.2734V27.6328C271.617 29.9219 270.469 30.5391 266.945 32.6641C266.727 32.7969 266.617 32.8438 266.508 32.8438V20.0938C266.617 20.0938 266.734 20.1172 266.922 20.1797Z" fill="#797979"/>
</g>
<g style="mix-blend-mode:luminosity" opacity="0.5">
<g style="mix-blend-mode:luminosity">
<path d="M610.273 24.9766C610.5 24.9766 610.68 24.9062 610.82 24.7578L614.023 21.5312C614.195 21.3594 614.273 21.1719 614.273 20.9531C614.273 20.7422 614.188 20.5391 614.023 20.3828L610.82 17.125C610.68 16.9688 610.5 16.8906 610.273 16.8906C609.852 16.8906 609.516 17.2422 609.516 17.6719C609.516 17.8828 609.594 18.0547 609.727 18.2031L611.594 20.0312C611.227 19.9766 610.852 19.9453 610.477 19.9453C606.609 19.9453 603.516 23.0391 603.516 26.9141C603.516 30.7891 606.633 33.9062 610.5 33.9062C614.375 33.9062 617.484 30.7891 617.484 26.9141C617.484 26.4453 617.156 26.1094 616.688 26.1094C616.234 26.1094 615.93 26.4453 615.93 26.9141C615.93 29.9297 613.516 32.3516 610.5 32.3516C607.492 32.3516 605.07 29.9297 605.07 26.9141C605.07 23.875 607.469 21.4688 610.477 21.4688C610.984 21.4688 611.453 21.5078 611.867 21.5781L609.734 23.6875C609.594 23.8281 609.516 24 609.516 24.2109C609.516 24.6406 609.852 24.9766 610.273 24.9766Z" fill="#797979"/>
</g>
</g>
<g style="mix-blend-mode:luminosity">
<path d="M771.508 28.4141C771.906 28.4141 772.234 28.0859 772.234 27.6953V19.8359L772.18 18.6797L772.656 19.25L773.75 20.4141C773.875 20.5547 774.055 20.625 774.234 20.625C774.594 20.625 774.891 20.3672 774.891 20C774.891 19.8047 774.812 19.6641 774.68 19.5312L772.062 17.0078C771.875 16.8203 771.695 16.7578 771.508 16.7578C771.312 16.7578 771.141 16.8203 770.953 17.0078L768.328 19.5312C768.195 19.6641 768.117 19.8047 768.117 20C768.117 20.3672 768.406 20.625 768.766 20.625C768.945 20.625 769.133 20.5547 769.258 20.4141L770.352 19.25L770.836 18.6719L770.773 19.8359V27.6953C770.773 28.0859 771.102 28.4141 771.508 28.4141ZM767 34.6562H776C777.695 34.6562 778.57 33.7812 778.57 32.1094V24.4297C778.57 22.7578 777.695 21.8828 776 21.8828H773.891V23.4375H775.898C776.609 23.4375 777.016 23.8125 777.016 24.5625V31.9688C777.016 32.7188 776.609 33.0938 775.898 33.0938H767.102C766.383 33.0938 765.984 32.7188 765.984 31.9688V24.5625C765.984 23.8125 766.383 23.4375 767.102 23.4375H769.133V21.8828H767C765.312 21.8828 764.43 22.75 764.43 24.4297V32.1094C764.43 33.7812 765.312 34.6562 767 34.6562Z" fill="#797979"/>
</g>
<g style="mix-blend-mode:luminosity">
<path d="M146.406 33.0234L140.328 27.0781C140.117 26.8672 140.008 26.6328 140.008 26.3594C140.008 26.0859 140.117 25.8359 140.336 25.6328L146.414 19.6953C146.586 19.5234 146.805 19.4297 147.055 19.4297C147.578 19.4297 147.984 19.8359 147.984 20.3516C147.984 20.6016 147.883 20.8438 147.703 21.0234L142.234 26.3516L147.703 31.6953C147.883 31.875 147.984 32.1094 147.984 32.3672C147.984 32.8828 147.578 33.2891 147.055 33.2891C146.805 33.2891 146.586 33.1953 146.406 33.0234Z" fill="#797979"/>
</g>
<g style="mix-blend-mode:luminosity">
<path d="M170.938 33.2812C171.195 33.2812 171.406 33.1875 171.586 33.0156L177.664 27.0781C177.875 26.8594 177.984 26.6328 177.984 26.3516C177.984 26.0781 177.883 25.8359 177.664 25.6328L171.586 19.6875C171.406 19.5156 171.195 19.4219 170.938 19.4219C170.414 19.4219 170.008 19.8281 170.008 20.3438C170.008 20.5938 170.117 20.8359 170.289 21.0156L175.766 26.3594L170.289 31.6875C170.109 31.875 170.008 32.1016 170.008 32.3594C170.008 32.875 170.414 33.2812 170.938 33.2812Z" fill="#797979"/>
</g>
</g>
<defs>
<filter id="filter0_d_105_61" x="0" y="0" width="877" height="54" filterUnits="userSpaceOnUse" color-interpolation-filters="sRGB">
<feFlood flood-opacity="0" result="BackgroundImageFix"/>
<feColorMatrix in="SourceAlpha" type="matrix" values="0 0 0 0 0 0 0 0 0 0 0 0 0 0 0 0 0 0 127 0" result="hardAlpha"/>
<feOffset dy="1"/>
<feGaussianBlur stdDeviation="0.5"/>
<feColorMatrix type="matrix" values="0 0 0 0 0 0 0 0 0 0 0 0 0 0 0 0 0 0 0.05 0"/>
<feBlend mode="normal" in2="BackgroundImageFix" result="effect1_dropShadow_105_61"/>
<feBlend mode="normal" in="SourceGraphic" in2="effect1_dropShadow_105_61" result="shape"/>
</filter>
<filter id="filter1_bi_105_61" x="-80.5485" y="-81.5485" width="1038.1" height="215.097" filterUnits="userSpaceOnUse" color-interpolation-filters="sRGB">
<feFlood flood-opacity="0" result="BackgroundImageFix"/>
<feGaussianBlur in="BackgroundImage" stdDeviation="40.7742"/>
<feComposite in2="SourceAlpha" operator="in" result="effect1_backgroundBlur_105_61"/>
<feBlend mode="normal" in="SourceGraphic" in2="effect1_backgroundBlur_105_61" result="shape"/>
<feColorMatrix in="SourceAlpha" type="matrix" values="0 0 0 0 0 0 0 0 0 0 0 0 0 0 0 0 0 0 127 0" result="hardAlpha"/>
<feOffset dy="1"/>
<feGaussianBlur stdDeviation="1.5"/>
<feComposite in2="hardAlpha" operator="arithmetic" k2="-1" k3="1"/>
<feColorMatrix type="matrix" values="0 0 0 0 1 0 0 0 0 1 0 0 0 0 1 0 0 0 0.5 0"/>
<feBlend mode="normal" in2="shape" result="effect2_innerShadow_105_61"/>
</filter>
</defs>
</svg>
