<svg id="Layer_1" data-name="Layer 1" xmlns="http://www.w3.org/2000/svg" xmlns:xlink="http://www.w3.org/1999/xlink" viewBox="0 0 236.82 137.05"><defs><style>.cls-1{fill:url(#linear-gradient);}.cls-2{fill:url(#linear-gradient-2);}.cls-3{fill:url(#linear-gradient-3);}.cls-4{fill:none;}</style><linearGradient id="linear-gradient" x1="172.37" y1="264.65" x2="130.32" y2="191.81" gradientUnits="userSpaceOnUse"><stop offset="0" stop-color="#f3558e"/><stop offset="0.58" stop-color="#f43c83"/><stop offset="1" stop-color="#f4277a"/></linearGradient><linearGradient id="linear-gradient-2" x1="245.82" y1="312.19" x2="182.62" y2="202.72" xlink:href="#linear-gradient"/><linearGradient id="linear-gradient-3" x1="323.8" y1="292.94" x2="277.79" y2="213.25" xlink:href="#linear-gradient"/></defs><path class="cls-1" d="M108.18,230.85c0-25.8,19.09-44.72,45.06-44.72,12.55,0,22.53,3.09,29.41,7.05L173.19,225h-5.33c-4.13-7.05-9.29-18.4-13.76-26.66-2.24-4.3-3.78-5.85-5.85-5.85-6.53,0-11.69,11-11.69,24.77,0,20.47,11.52,34.74,29.41,34.74,5.33,0,10.66-1.54,14.1-3.95l2.58,3.78c-6.19,12.39-16.86,19.09-32.16,19.09C123.31,270.92,108.18,253.38,108.18,230.85Z" transform="translate(-108.18 -186.13)"/><path class="cls-2" d="M224.9,285a37.81,37.81,0,0,1-10-1.21c.17,8.77.17,17.89.34,26.66,0,3.79,1.55,5.51,5.16,6.36l6.37,1.55v4.82H178.11v-4.82l1.89-.69c3.44-1.2,5-3.43,5-6.53.35-26.14.35-66.39,0-91.16,0-4.47-2.06-6.54-5.67-7.74l-2.76-.86v-5.16c9.64-1.55,20.3-3.61,30.27-5.68l4.13.18,2.24,9.63C219.91,205,228.68,200.2,238,200.2c19.26,0,30.61,14.1,30.61,37C268.58,266.25,250.52,285,224.9,285Zm.85-5.85c6.71,0,11.53-9.29,11.53-27.35,0-21.33-3.79-39-15.82-39a10.94,10.94,0,0,0-6.54,2.41c-.17,12.38-.17,27-.17,42.65C215.44,271.92,219.73,279.15,225.75,279.15Z" transform="translate(-108.18 -186.13)"/><path class="cls-3" d="M338.39,217.64l-9.12,34.92h-6.53a162.35,162.35,0,0,0-6.88-18.41c-1.38-4.13-5-5.5-8.26-3.09a13.3,13.3,0,0,0-2.58,2.06c-.17,16.68-.34,33.88,0,50.05,0,4.3,1,6.54,5.16,7.4l6.71,1.55v4.81H268v-4.81l1.72-.69c3.61-1.21,5.16-3.27,5.16-7.57.35-16.51.35-34.06,0-50.74,0-4.47-1.72-6.71-5.67-7.57l-2.93-.86v-4.81c10.15-1.72,20.3-3.44,31.65-5.68h4.13l2.06,12.21,2.92-2.58c7.92-6.53,14.28-9.8,20.3-9.8A17.22,17.22,0,0,1,338.39,217.64Z" transform="translate(-108.18 -186.13)"/><line class="cls-4" x1="236.82" y1="116.87" x2="34.82" y2="84.87"/></svg>