<?xml version="1.0" encoding="utf-8"?>
<!-- Generator: Adobe Illustrator 24.1.0, SVG Export Plug-In . SVG Version: 6.00 Build 0)  -->
<svg version="1.1" id="Layer_1" xmlns="http://www.w3.org/2000/svg" xmlns:xlink="http://www.w3.org/1999/xlink" x="0px" y="0px"
	 viewBox="0 0 1061.3 1059.3" style="enable-background:new 0 0 1061.3 1059.3;" xml:space="preserve">
<style type="text/css">
	.st0{clip-path:url(#SVGID_2_);}
	.st1{fill:#FFFFFF;}
</style>
<g>
	<defs>
		<rect id="SVGID_1_" y="-2" width="1061.3" height="1061.3"/>
	</defs>
	<clipPath id="SVGID_2_">
		<use xlink:href="#SVGID_1_"  style="overflow:visible;"/>
	</clipPath>
	<g class="st0">
		<path class="st1" d="M-488.8,574.7l28.3-28.3l77.6-77.4l114.2-114l139.4-139.1L24.1,62.7L178.3-91L322-234.5L444-356.3l87.3-87.2
			c13.8-13.8,27.8-27.4,41.5-41.4c0.6-0.6,1.2-1.2,1.8-1.8c23.6-23.6,25.3-66.8,0-90c-25.3-23.2-64.8-25.2-90,0l-28.3,28.3
			L378.6-471l-114.2,114L125-217.8L-28.4-64.7L-182.5,89.1l-143.7,143.4l-122.1,121.8l-87.3,87.2c-13.8,13.8-27.8,27.4-41.5,41.4
			c-0.6,0.6-1.2,1.2-1.8,1.8c-23.6,23.6-25.3,66.8,0,90C-553.5,597.9-514,599.9-488.8,574.7L-488.8,574.7z"/>
		<path class="st1" d="M-276.3,786.9l28.3-28.3l77.6-77.4l114.2-114L83.2,428L236.7,275l154.1-153.8L534.5-22.3l122.1-121.8
			l87.4-87.2c13.8-13.8,27.8-27.4,41.5-41.4c0.6-0.6,1.2-1.2,1.8-1.8c23.6-23.6,25.3-66.8,0-90.1c-25.3-23.2-64.8-25.2-90,0
			l-28.3,28.3l-77.7,77.4l-114.2,114L337.5-5.7L184.1,147.4L30,301.2l-143.7,143.6l-122.1,121.8l-87.3,87.2
			c-13.8,13.8-27.8,27.4-41.5,41.4l-1.8,1.8c-23.6,23.6-25.3,66.8,0,90.1s64.8,25.1,90,0V786.9z"/>
		<path class="st1" d="M-63.8,999l28.3-28.3l77.6-77.5l114.3-114l139.4-139.1l153.4-153.1l154.1-153.8L747,189.8L869.1,68l87.3-87.2
			c13.8-13.7,27.8-27.4,41.5-41.3c0.6-0.6,1.2-1.2,1.8-1.8c23.6-23.6,25.3-66.8,0-90.1s-64.9-25.1-90.1,0l-28.3,28.2l-77.6,77.4
			l-114.3,114L550.1,206.4L396.7,359.6L242.5,513.4L98.8,656.8L-23.2,778.6l-87.3,87.2c-13.8,13.8-27.8,27.4-41.4,41.4
			c-0.6,0.6-1.2,1.2-1.8,1.8c-23.6,23.6-25.3,66.8,0,90.1S-89,1024.2-63.8,999L-63.8,999z"/>
		<path class="st1" d="M148.7,1211l28.3-28.3l77.6-77.4l114.3-114l139.5-139l153.4-153.1l154.1-153.8L959.6,402l122.1-121.8
			L1169,193c13.8-13.8,27.8-27.4,41.5-41.4l1.8-1.8c23.6-23.6,25.3-66.8,0-90c-25.3-23.2-64.9-25.2-90.1,0L1093.8,88l-77.6,77.4
			l-114.3,114L762.6,418.6L609.2,571.7L455.1,725.5L311.3,868.9l-122,121.8l-87.3,87.2c-13.8,13.8-27.8,27.4-41.4,41.3l-1.8,1.8
			c-23.6,23.6-25.3,66.8,0,90S123.5,1236.3,148.7,1211L148.7,1211z"/>
		<path class="st1" d="M361.3,1423.3l28.3-28.3l77.6-77.4l114.3-114l139.4-139.1l153.4-153.1l154.3-153.8l143.7-143.4l122-121.8
			l87.3-87.2c13.8-13.8,27.8-27.4,41.4-41.3c0.6-0.6,1.2-1.2,1.8-1.8c23.6-23.6,25.3-66.8,0-90s-64.9-25.2-90.1,0l-28.3,28.3
			l-77.6,77.4l-114.3,114L975.1,630.7L821.7,783.8L667.6,937.6l-143.7,143.4l-122.1,121.8l-87.3,87.2
			c-13.8,13.8-27.8,27.4-41.5,41.4l-1.8,1.8c-23.6,23.6-25.3,66.8,0,90C296.5,1446.5,336.1,1448.4,361.3,1423.3L361.3,1423.3z"/>
		<path class="st1" d="M573.8,1635.4l28.3-28.3l77.6-77.5l114.3-114l139.4-139.1l153.4-153.1l154.1-153.8l143.7-143.4l122.1-121.8
			l87.3-87.2c13.8-13.8,27.8-27.4,41.4-41.4c0.6-0.6,1.2-1.2,1.8-1.8c23.6-23.6,25.3-66.8,0-90.1c-25.3-23.2-64.9-25.2-90.1,0
			l-28.4,28.3l-77.6,77.5l-114.2,114l-139.4,139.1L1034.2,996l-154.1,153.8l-143.7,143.4L614.3,1415l-87.3,87.2
			c-13.8,13.8-27.8,27.4-41.5,41.4c-0.6,0.6-1.2,1.2-1.8,1.8c-23.6,23.6-25.3,66.8,0,90.1C509,1658.7,548.6,1660.6,573.8,1635.4
			L573.8,1635.4z"/>
	</g>
</g>
</svg>
